:FULLY-SPECIFIED
:FORCE-ALL-JOINTS-BE-3DOF
:DEGREES
114
root 9.36081 16.1867 -21.4367 4.13368 3.70628 4.57266
lfemur 13.7066 0.450788 -28.8107
ltibia 7.95142e-15 0 0
lfoot -14.0502 2.65784 0.00164747
ltoes -2.87663 0 0
rfemur -40.2088 11.7892 7.35852
rtibia 28.6936 -0 0
rfoot -23.0873 -8.90057 0.0010392
rtoes -19.0153 0 0
lowerback -8.05501 -3.25241 -5.59187
upperback -0.990205 -3.92939 2.34307
thorax 4.02754 -2.06094 5.12946
lowerneck -19.4162 -5.14172 -13.2296
upperneck 21.3855 -5.89093 10.8013
head 10.8351 -2.52404 5.24823
lclavicle 3.43522e-15 4.37326e-15 0
lhumerus -24.9658 -26.5507 92.5291
lradius 42.5213 -0 0
lwrist 13.0444 0 0
lhand -13.065 -25.3399 -0.00115204
lfingers 7.12502 0 0
lthumb 13.0306 4.23239 -0.00124896
rclavicle 3.43522e-15 4.37326e-15 0
rhumerus -46.3778 9.4915 -84.5192
rradius 35.5237 -0 0
rwrist -19.3167 0 0
rhand -29.4697 -23.4993 0.00128186
rfingers 7.12502 0 0
rthumb -2.80537 -53.4603 0.00122348
115
root 9.35402 16.1749 -21.3024 4.23169 4.03138 4.63309
lfemur 14.0368 0.472366 -28.7253
ltibia 1.59028e-14 0 0
lfoot -14.3807 2.42559 0
ltoes -2.85137 0 0
rfemur -40.5964 12.2383 6.76713
rtibia 28.2368 0 0
rfoot -23.451 -9.44436 0
rtoes -19.0088 0 0
lowerback -8.14713 -3.307 -5.6302
upperback -0.9908 -3.99267 2.31486
thorax 4.08787 -2.09412 5.10896
lowerneck -19.3289 -5.17902 -13.265
upperneck 21.3105 -5.95092 10.8474
head 10.8023 -2.55068 5.25973
lclavicle 1.08213e-14 3.18055e-15 0
lhumerus -25.3625 -26.7335 92.9123
lradius 42.6137 0 0
lwrist 13.0172 0 0
lhand -12.7579 -25.2959 0
lfingers 7.12502 0 0
lthumb 13.3266 4.25797 0
rclavicle 1.08213e-14 3.18055e-15 0
rhumerus -46.3924 9.13805 -84.2543
rradius 35.2817 0 0
rwrist -19.1783 0 0
rhand -29.3331 -23.3051 0
rfingers 7.12502 0 0
rthumb -2.67343 -53.2681 0
116
root 9.34104 16.1581 -21.1629 4.33647 4.34047 4.70553
lfemur 14.4605 0.50409 -28.6375
ltibia 1.48426e-14 0 0
lfoot -14.637 2.15447 0.000738755
ltoes -2.91718 0 0
rfemur -40.9354 12.534 6.26571
rtibia 27.8172 -0 0
rfoot -23.792 -10.0828 0.00272507
rtoes -19.3439 0 0
lowerback -8.20681 -3.35979 -5.69758
upperback -1.00757 -4.05289 2.29255
thorax 4.11483 -2.12509 5.11323
lowerneck -19.273 -5.2058 -13.3323
upperneck 21.2803 -5.99514 10.9317
head 10.7923 -2.56797 5.29536
lclavicle 2.2363e-15 7.95142e-16 0
lhumerus -25.7974 -26.8741 93.3279
lradius 42.6484 -0 0
lwrist 12.9372 0 0
lhand -12.5072 -25.1686 0.00111463
lfingers 7.12502 0 0
lthumb 13.5683 4.36967 0.00114927
rclavicle 2.2363e-15 7.95142e-16 0
rhumerus -46.4725 8.8381 -84.0265
rradius 35.0915 -0 0
rwrist -19.0008 0 0
rhand -29.2448 -23.1898 -0.000388847
rfingers 7.12502 0 0
rthumb -2.58814 -53.1541 -0.000364359
117
root 9.32806 16.1413 -21.0234 4.44565 4.63903 4.78502
lfemur 14.8909 0.542418 -28.5442
ltibia 1.37824e-14 0 0
lfoot -14.9019 1.85801 0.00215277
ltoes -3.02891 0 0
rfemur -41.2353 12.7312 5.82186
rtibia 27.4505 -0 0
rfoot -24.1448 -10.856 0.0065322
rtoes -19.9389 0 0
lowerback -8.24584 -3.40873 -5.77673
upperback -1.03127 -4.10797 2.2689
thorax 4.12296 -2.15302 5.12443
lowerneck -19.2335 -5.22815 -13.4288
upperneck 21.269 -6.03367 11.0561
head 10.794 -2.58025 5.35286
lclavicle -6.3487e-15 -1.59027e-15 0
lhumerus -26.2614 -26.9936 93.766
lradius 42.6323 -0 0
lwrist 12.8109 0 0
lhand -12.2872 -24.9748 0.0019321
lfingers 7.12502 0 0
lthumb 13.7802 4.5493 0.00195636
rclavicle -6.3487e-15 -1.59027e-15 0
rhumerus -46.5895 8.55351 -83.815
rradius 34.935 -0 0
rwrist -18.7836 0 0
rhand -29.173 -23.1279 7.73024e-05
rfingers 7.12502 0 0
rthumb -2.51886 -53.0932 9.62504e-05
118
root 9.31508 16.1245 -20.8839 4.55988 4.92754 4.87183
lfemur 15.3238 0.586589 -28.4464
ltibia 1.27222e-14 0 0
lfoot -15.1515 1.54586 0.0032561
ltoes -3.19428 0 0
rfemur -41.4997 12.8354 5.43687
rtibia 27.1369 -0 0
rfoot -24.4801 -11.6731 0.00847084
rtoes -20.6523 0 0
lowerback -8.27077 -3.45632 -5.86707
upperback -1.05889 -4.16096 2.24425
thorax 4.11955 -2.17967 5.1418
lowerneck -19.21 -5.24708 -13.5357
upperneck 21.2693 -6.0673 11.1975
head 10.8033 -2.5889 5.41978
lclavicle -1.49337e-14 -3.97568e-15 0
lhumerus -26.7426 -27.0782 94.2145
lradius 42.5598 -0 0
lwrist 12.6415 0 0
lhand -12.0914 -24.7477 0.002182
lfingers 7.12502 0 0
lthumb 13.9689 4.76345 0.00217559
rclavicle -1.49337e-14 -3.97568e-15 0
rhumerus -46.7264 8.28467 -83.6212
rradius 34.7974 -0 0
rwrist -18.5598 0 0
rhand -29.1272 -23.0891 0.00090331
rfingers 7.12502 0 0
rthumb -2.47455 -53.055 0.000900641
119
root 9.3021 16.1077 -20.7445 4.6798 5.20643 4.96623
lfemur 15.7548 0.635871 -28.3451
ltibia 1.1662e-14 0 0
lfoot -15.3623 1.22768 0.00340939
ltoes -3.42099 0 0
rfemur -41.7325 12.8516 5.11171
rtibia 26.8764 -0 0
rfoot -24.7685 -12.4435 0.00748632
rtoes -21.3424 0 0
lowerback -8.28812 -3.50505 -5.96806
upperback -1.08745 -4.21489 2.21897
thorax 4.1119 -2.20681 5.16461
lowerneck -19.2023 -5.26367 -13.6342
upperneck 21.2739 -6.09681 11.3327
head 10.8162 -2.59527 5.48369
lclavicle -2.35187e-14 -6.36108e-15 0
lhumerus -27.2285 -27.1141 94.6608
lradius 42.4253 -0 0
lwrist 12.4321 0 0
lhand -11.913 -24.5202 0.00183116
lfingers 7.12502 0 0
lthumb 14.1408 4.97876 0.00179622
rclavicle -2.35187e-14 -6.36108e-15 0
rhumerus -46.8665 8.03184 -83.4468
rradius 34.6641 -0 0
rwrist -18.3627 0 0
rhand -29.1164 -23.043 0.00152179
rfingers 7.12502 0 0
rthumb -2.46416 -53.009 0.00149784
